# xmcd CD database file
#
# Track frame offsets:
#	150
#	8847
#	17965
#	30335
#	49690
#	74322
#	82460
#	125190
#	154187
#	183085
#	212750
#	222540
#	242052
#
# Disc length: 3377 seconds
#
# Revision: 0
# Processed by: cddbd v1.4PL0 Copyright (c) Steve Scherf et al.
# Submitted via: Feurio! 1.64 - http://www.feurio.com
#
DISCID=ba0d2f0d
DTITLE=Wullschläger, Herberg, Roller - Live 99
DYEAR=1999
DGENRE=
TTITLE0=E-Boogie
TTITLE1=Lady Madonna
TTITLE2=San Francisco Bay Blues
TTITLE3=Hey, Hey
TTITLE4=Orange Blossom Special
TTITLE5=Blue Train Coming
TTITLE6=Locomotive Breath
TTITLE7=All Along The Watchtower
TTITLE8=Every Breath You Take
TTITLE9=Honky Tonk Women
TTITLE10=Mojo Mozart
TTITLE11=Get It On Boogie
TTITLE12=Easy Boy
EXTD=
EXTT0=
EXTT1=
EXTT2=
EXTT3=
EXTT4=
EXTT5=
EXTT6=
EXTT7=
EXTT8=
EXTT9=
EXTT10=
EXTT11=
EXTT12=
PLAYORDER=
